<svg width="68" height="87" viewBox="0 0 68 87" fill="none" xmlns="http://www.w3.org/2000/svg">
<path d="M2.17017 14.578C13.4554 14.578 24.4512 10.8164 33.1321 3.87168L34.0002 3.00345L34.8683 3.87168C43.5492 10.8164 54.545 14.578 65.8302 14.578C62.0685 26.1526 60.043 34.8335 60.043 40.6208C60.043 46.408 62.0685 49.3017 65.8302 49.3017V57.9826C44.7067 75.3444 34.0002 84.0254 34.0002 84.0254C34.0002 84.0254 23.2937 75.3444 2.17017 57.9826V49.3017C5.9319 46.9868 7.95745 44.0931 7.95745 40.6208C7.95745 32.5186 5.9319 23.8377 2.17017 14.578Z" fill="url(#paint0_linear_38_1612)"/>
<path fill-rule="evenodd" clip-rule="evenodd" d="M34 0.925293C34.5513 0.925293 35.0799 1.14429 35.4696 1.53409L36.2554 2.31996C44.542 8.91493 55.0397 12.4999 65.8301 12.4999C66.4953 12.4999 67.1204 12.8183 67.5114 13.3566C67.9024 13.8948 68.0121 14.5877 67.8065 15.2204C64.0453 26.7934 62.121 35.1951 62.121 40.6208C62.121 43.3316 62.6059 45.0171 63.2483 45.9688C63.8001 46.7863 64.5682 47.2235 65.8301 47.2235C66.9778 47.2235 67.9083 48.154 67.9083 49.3017V57.9826C67.9083 58.6043 67.6299 59.1934 67.1497 59.5881C56.5861 68.2705 48.6268 74.7827 43.3079 79.1246C40.6485 81.2956 38.6492 82.924 37.3145 84.0098C36.6472 84.5527 36.146 84.96 35.8115 85.2316L35.3109 85.638L35.309 85.6395L34 84.0254L32.691 85.6395L32.6891 85.638L32.1886 85.2316C31.8541 84.96 31.3529 84.5527 30.6856 84.0098C29.3509 82.924 27.3516 81.2956 24.6922 79.1246C19.3733 74.7827 11.414 68.2705 0.850416 59.5881C0.370134 59.1934 0.091806 58.6043 0.091806 57.9826V49.3017C0.091806 48.58 0.466202 47.91 1.08082 47.5318C4.47236 45.4447 5.87909 43.1247 5.87909 40.6208C5.87909 32.861 3.93777 24.451 0.244622 15.3602C-0.0156685 14.7195 0.0598158 13.9913 0.445988 13.4176C0.832161 12.8439 1.47842 12.4999 2.16999 12.4999C12.9603 12.4999 23.4581 8.91493 31.7447 2.31995L32.5304 1.53409C32.9202 1.14429 33.4488 0.925293 34 0.925293ZM34 5.8347C25.7896 12.2545 15.6713 15.9724 5.1777 16.5706C8.32117 24.9845 10.0355 33.0087 10.0355 40.6208C10.0355 44.6962 7.80832 47.9518 4.24817 50.4252V57.0006C14.4313 65.3689 22.1333 71.6703 27.3205 75.9048C29.9782 78.0743 31.9757 79.7013 33.3086 80.7857C33.5634 80.9929 33.7939 81.1804 34 81.348C34.2062 81.1804 34.4367 80.9929 34.6915 80.7857C36.0244 79.7013 38.0219 78.0743 40.6795 75.9048C45.8668 71.6703 53.5687 65.3689 63.7519 57.0006V51.1221C62.1548 50.7022 60.797 49.7663 59.8033 48.2942C58.4925 46.3522 57.9646 43.6972 57.9646 40.6208C57.9646 34.9486 59.7744 26.8842 63.0083 16.5808C52.4483 16.0162 42.2589 12.2924 34 5.8347ZM34 84.0254L32.691 85.6395C33.454 86.2581 34.5461 86.2581 35.309 85.6395L34 84.0254Z" fill="#09075F"/>
<path d="M29.1521 23.5544H38.88V38.4387H29.1521V23.5544Z" fill="white"/>
<path d="M14.2681 48.1668L14.2681 38.439L29.1524 38.439L29.1524 48.1668L14.2681 48.1668Z" fill="#F80D38"/>
<path d="M53.7322 48.0757L53.7322 38.3478L38.8479 38.3478L38.8479 48.0757L53.7322 48.0757Z" fill="#F80D38"/>
<path d="M38.8799 63.4745L29.152 63.4745L29.152 48.1669L38.8799 48.1669L38.8799 63.4745Z" fill="white"/>
<defs>
<linearGradient id="paint0_linear_38_1612" x1="34.0002" y1="3.00345" x2="34.0002" y2="84.0254" gradientUnits="userSpaceOnUse">
<stop stop-color="#100DB4"/>
<stop offset="1" stop-color="#070641"/>
</linearGradient>
</defs>
</svg>
